HIERARCHY
ROOT Hips
{
  OFFSET 51.777 86.7886 27.9936
  CHANNELS 6 Xposition Yposition Zposition Zrotation Xrotation Yrotation
  JOINT spine
  {
    OFFSET 0 6.84637 0.3937
    CHANNELS 3 Zrotation Xrotation Yrotation
    JOINT spine1
    {
      OFFSET 0 9.49621 0
      CHANNELS 3 Zrotation Xrotation Yrotation
      JOINT spine2
      {
        OFFSET 0 9.09909 0
        CHANNELS 3 Zrotation Xrotation Yrotation
        JOINT Neck
        {
          OFFSET 0 23.3612 1.11378
          CHANNELS 3 Zrotation Xrotation Yrotation
          JOINT Head
          {
            OFFSET 0 7.05802 0
            CHANNELS 3 Zrotation Xrotation Yrotation
            End Site
            {
              OFFSET 0 17.0844 -5.63419
            }
          }
        }
        JOINT RightShoulder
        {
          OFFSET -3.83136 9.82631 -0.533491
          CHANNELS 3 Zrotation Xrotation Yrotation
          JOINT RightArm
          {
            OFFSET 0 12.8881 0
            CHANNELS 3 Zrotation Xrotation Yrotation
            JOINT RightArmRoll
            {
              OFFSET 0 6.50617 0
              CHANNELS 3 Zrotation Xrotation Yrotation
              JOINT RightForeArm
              {
                OFFSET 0 18.9501 0
                CHANNELS 3 Zrotation Xrotation Yrotation
                JOINT RightForeArmRoll
                {
                  OFFSET 0 7.30092 0
                  CHANNELS 3 Zrotation Xrotation Yrotation
                  JOINT RightHand
                  {
                    OFFSET 0 14.6514 0
                    CHANNELS 3 Zrotation Xrotation Yrotation
                    End Site
                    {
                      OFFSET 0 0 0
                    }
                  }
                }
              }
            }
          }
        }
        JOINT LeftShoulder
        {
          OFFSET 3.83136 9.82631 -0.533491
          CHANNELS 3 Zrotation Xrotation Yrotation
          JOINT LeftArm
          {
            OFFSET 0 12.8881 0
            CHANNELS 3 Zrotation Xrotation Yrotation
            JOINT LeftArmRoll
            {
              OFFSET 0 6.50617 0
              CHANNELS 3 Zrotation Xrotation Yrotation
              JOINT LeftForeArm
              {
                OFFSET 0 18.9501 0
                CHANNELS 3 Zrotation Xrotation Yrotation
                JOINT LeftForeArmRoll
                {
                  OFFSET 0 7.30092 0
                  CHANNELS 3 Zrotation Xrotation Yrotation
                  JOINT LeftHand
                  {
                    OFFSET 0 14.6514 0
                    CHANNELS 3 Zrotation Xrotation Yrotation
                    End Site
                    {
                      OFFSET 0 0 0
                    }
                  }
                }
              }
            }
          }
        }
      }
    }
  }
  JOINT RightUpLeg
  {
    OFFSET -6.06837 -1.11278 -0.933477
    CHANNELS 3 Zrotation Xrotation Yrotation
    JOINT RightUpLegRoll
    {
      OFFSET 0 17.1796 0
      CHANNELS 3 Zrotation Xrotation Yrotation
      JOINT RightLeg
      {
        OFFSET 0 -21.2743 0
        CHANNELS 3 Zrotation Xrotation Yrotation
        JOINT RightLegRoll
        {
          OFFSET 0 21.3439 0
          CHANNELS 3 Zrotation Xrotation Yrotation
          JOINT RightFoot
          {
            OFFSET 0 17.7652 0
            CHANNELS 3 Zrotation Xrotation Yrotation
            JOINT RightToeBase
            {
              OFFSET 0 14.8508 0
              CHANNELS 3 Zrotation Xrotation Yrotation
              End Site
              {
                OFFSET 0.0062947 7.19213 -0.829005
              }
            }
          }
        }
      }
    }
  }
  JOINT LeftUpLeg
  {
    OFFSET 6.06837 -1.11278 -0.933477
    CHANNELS 3 Zrotation Xrotation Yrotation
    JOINT LeftUpLegRoll
    {
      OFFSET 0 17.1797 0
      CHANNELS 3 Zrotation Xrotation Yrotation
      JOINT LeftLeg
      {
        OFFSET 0 21.2742 0
        CHANNELS 3 Zrotation Xrotation Yrotation
        JOINT LeftLegRoll
        {
          OFFSET 0 21.5412 0
          CHANNELS 3 Zrotation Xrotation Yrotation
          JOINT LeftFoot
          {
            OFFSET 0 17.5679 0
            CHANNELS 3 Zrotation Xrotation Yrotation
            JOINT LeftToeBase
            {
              OFFSET 0 14.8508 0
              CHANNELS 3 Zrotation Xrotation Yrotation
              End Site
              {
                OFFSET -0.0282102 7.19213 -0.829005
              }
            }
          }
        }
      }
    }
  }
}
MOTION
Frames: 10
Frame Time: 0.00208333
51.9327 52.9881 -5.11534 4.53873 0.824719 -6.49938 -0.0822312 -0.0164051 1.5761 -0.1627 3.9684 3.16963 -0.201238 5.61241 3.17581 -15.7218 2.02486 0.683672 9.6779 11.3635 -2.72781 51.9138 -7.96184 -4.72246 128.834 48.5038 -41.9427 4.14656e-006 -1.80724e-006 -1.16788e-005 26.7567 15.6892 -0.953101 -3.02328e-006 2.07675e-006 -3 8.03013 -4.95142 0.697669 -74.5957 -6.74369 4.78821 -112.378 58.5326 19.8117 -1.02362e-006 8.41477e-006 1.00797e-006 -33.7848 5.91593 0.0745441 3.24815e-006 -1.07351e-006 2.99997 -8.03085 -4.95141 -0.697777 111.444 81.5951 73.2731 -180 1.52534e-005 178.482 167.393 78.807 -170.904 -3.40666e-006 -2.00808e-007 2.17679 -24.3081 60.182 13.0358 8.13649 25.2327 -3.48773 -111.05 76.4595 -73.3554 4.54188e-006 -4.6773e-006 -0.466815 -4.83587 -84.6947 0.209598 -1.77578e-007 -3.04992e-006 -1.48204 15.1993 63.8995 -16.7074 -8.13649 25.2327 3.48773 
51.9319 52.9801 -5.11668 4.53374 0.826861 -6.49907 -0.0822066 -0.0172091 1.57667 -0.162595 3.9668 3.17056 -0.201132 5.61081 3.17674 -15.7312 2.02967 0.682574 9.68901 11.3625 -2.73162 51.9122 -7.96165 -4.72229 128.816 48.4663 -41.9594 4.14656e-006 -1.80724e-006 -1.16788e-005 26.777 15.7042 -0.952525 -3.02328e-006 2.07675e-006 -3 8.03013 -4.95142 0.697669 -74.598 -6.74429 4.78859 -112.38 58.5312 19.8143 -1.02362e-006 8.41477e-006 1.00797e-006 -33.8013 5.86558 0.05441 3.24815e-006 -1.07351e-006 2.99997 -8.03085 -4.95141 -0.697777 111.441 81.5966 73.2789 -180 1.52534e-005 178.482 167.39 78.8135 -170.901 -3.40666e-006 -2.00808e-007 2.17679 -24.3113 60.1902 13.0428 8.13649 25.2327 -3.48773 -111.035 76.4589 -73.3666 4.54188e-006 -4.6773e-006 -0.466831 -4.82009 -84.695 0.223275 -1.77578e-007 -3.04992e-006 -1.48204 15.1997 63.9001 -16.7086 -8.13649 25.2327 3.48773 
51.9307 52.983 -5.11757 4.52869 0.828956 -6.49869 -0.0821699 -0.0180307 1.57724 -0.162439 3.96517 3.1715 -0.200974 5.60918 3.17768 -15.7406 2.03449 0.681434 9.69996 11.3616 -2.73544 51.9109 -7.96167 -4.72229 128.797 48.4287 -41.9738 4.14656e-006 -1.80724e-006 -1.16788e-005 26.7964 15.7203 -0.952377 -3.02328e-006 2.07675e-006 -3 8.03013 -4.95142 0.697669 -74.6003 -6.7448 4.78892 -112.381 58.5294 19.8165 -1.02362e-006 8.41477e-006 1.00797e-006 -33.818 5.81377 0.0337378 3.24815e-006 -1.07351e-006 2.99997 -8.03085 -4.95141 -0.697777 111.439 81.5979 73.2846 -180 1.52534e-005 178.482 167.385 78.8201 -170.897 -3.40666e-006 -2.00808e-007 2.17679 -24.3149 60.1986 13.05 8.13649 25.2327 -3.48773 -111.02 76.4583 -73.3774 4.54188e-006 -4.6773e-006 -0.466854 -4.80415 -84.6954 0.237056 -1.77578e-007 -3.04992e-006 -1.48204 15.2001 63.9008 -16.7098 -8.13649 25.2327 3.48773 
51.9317 52.9882 -5.11673 4.5236 0.831018 -6.49824 -0.0821247 -0.0188647 1.5778 -0.162248 3.96351 3.17245 -0.20078 5.60752 3.17863 -15.7498 2.03931 0.680265 9.7108 11.3606 -2.73927 51.9098 -7.96184 -4.72241 128.777 48.391 -41.9865 4.14656e-006 -1.80724e-006 -1.16788e-005 26.8151 15.7371 -0.952529 -3.02328e-006 2.07675e-006 -3 8.03013 -4.95142 0.697669 -74.6025 -6.74525 4.78922 -112.383 58.5273 19.8183 -1.02362e-006 8.41477e-006 1.00797e-006 -33.8351 5.76095 0.0126902 3.24815e-006 -1.07351e-006 2.99997 -8.03085 -4.95141 -0.697777 111.437 81.599 73.2901 -180 1.52534e-005 178.482 167.381 78.8268 -170.894 -3.40666e-006 -2.00808e-007 2.17679 -24.3188 60.2072 13.0572 8.13649 25.2327 -3.48773 -111.006 76.4578 -73.388 4.54188e-006 -4.6773e-006 -0.466883 -4.78811 -84.6957 0.250909 -1.77578e-007 -3.04992e-006 -1.48204 15.2006 63.9016 -16.7111 -8.13649 25.2327 3.48773 
51.9328 52.983 -5.11612 4.5185 0.833061 -6.49777 -0.0820747 -0.0197057 1.57836 -0.162036 3.96184 3.17341 -0.200564 5.60585 3.17959 -15.7589 2.04414 0.679079 9.72158 11.3596 -2.74309 51.9088 -7.9621 -4.72258 128.757 48.3533 -41.9982 4.14656e-006 -1.80724e-006 -1.16788e-005 26.8335 15.7544 -0.952853 -3.02328e-006 2.07675e-006 -3 8.03013 -4.95142 0.697669 -74.6046 -6.74566 4.7895 -112.385 58.525 19.82 -1.02362e-006 8.41477e-006 1.00797e-006 -33.8522 5.70755 -0.00857003 3.24815e-006 -1.07351e-006 2.99997 -8.03085 -4.95141 -0.697777 111.435 81.6001 73.2956 -180 1.52534e-005 178.482 167.376 78.8334 -170.89 -3.40666e-006 -2.00808e-007 2.1768 -24.3228 60.2157 13.0645 8.13649 25.2327 -3.48773 -110.991 76.4573 -73.3985 4.54188e-006 -4.6773e-006 -0.466915 -4.77201 -84.696 0.264805 -1.77578e-007 -3.04992e-006 -1.48204 15.2012 63.9023 -16.7124 -8.13649 25.2327 3.48773 
51.9306 52.9804 -5.11663 4.51339 0.8351 -6.49729 -0.0820235 -0.0205485 1.57893 -0.161818 3.96016 3.17437 -0.200344 5.60417 3.18055 -15.7681 2.04897 0.67789 9.73234 11.3585 -2.74692 51.9079 -7.96238 -4.72278 128.737 48.3156 -42.0097 4.14656e-006 -1.80724e-006 -1.16788e-005 26.8518 15.7718 -0.953221 -3.02328e-006 2.07675e-006 -3 8.03013 -4.95142 0.697669 -74.6067 -6.74606 4.78977 -112.387 58.5227 19.8217 -1.02362e-006 8.41477e-006 1.00797e-006 -33.8695 5.654 -0.0298805 3.24815e-006 -1.07351e-006 2.99997 -8.03085 -4.95141 -0.697777 111.433 81.6011 73.3011 -180 1.52534e-005 178.482 167.372 78.8401 -170.886 -3.40666e-006 -2.00808e-007 2.1768 -24.3268 60.2243 13.0718 8.13649 25.2327 -3.48773 -110.977 76.4568 -73.4089 4.54188e-006 -4.6773e-006 -0.466948 -4.75589 -84.6963 0.278713 -1.77578e-007 -3.04992e-006 -1.48204 15.2017 63.9031 -16.7137 -8.13649 25.2327 3.48773 
51.925 52.985 -5.11748 4.50829 0.837148 -6.49682 -0.0819747 -0.0213877 1.57949 -0.161611 3.95849 3.17533 -0.200134 5.6025 3.18151 -15.7772 2.05379 0.676708 9.74313 11.3575 -2.75075 51.9069 -7.96262 -4.72294 128.717 48.2779 -42.0217 4.14656e-006 -1.80724e-006 -1.16788e-005 26.8702 15.789 -0.953502 -3.02328e-006 2.07675e-006 -3 8.03013 -4.95142 0.697669 -74.6088 -6.74648 4.79006 -112.389 58.5205 19.8234 -1.02362e-006 8.41477e-006 1.00797e-006 -33.8867 5.60074 -0.0510787 3.24815e-006 -1.07351e-006 2.99997 -8.03085 -4.95141 -0.697777 111.431 81.6021 73.3066 -180 1.52534e-005 178.482 167.367 78.8468 -170.882 -3.40666e-006 -2.00808e-007 2.17681 -24.3308 60.2329 13.0791 8.13649 25.2327 -3.48773 -110.962 76.4563 -73.4194 4.54188e-006 -4.6773e-006 -0.466979 -4.73979 -84.6966 0.292602 -1.77578e-007 -3.04992e-006 -1.48204 15.2022 63.9039 -16.7151 -8.13649 25.2327 3.48773 
51.9233 52.9893 -5.11706 4.50321 0.839219 -6.4964 -0.0819319 -0.0222181 1.58006 -0.161429 3.95684 3.17628 -0.19995 5.60085 3.18246 -15.7865 2.05861 0.675548 9.754 11.3565 -2.75457 51.9057 -7.96275 -4.72302 128.697 48.2402 -42.0349 4.14656e-006 -1.80724e-006 -1.16788e-005 26.8892 15.8057 -0.953569 -3.02328e-006 2.07675e-006 -3 8.03013 -4.95142 0.697669 -74.611 -6.74695 4.79037 -112.391 58.5185 19.8253 -1.02362e-006 8.41477e-006 1.00797e-006 -33.9038 5.54821 -0.0720025 3.24815e-006 -1.07351e-006 2.99997 -8.03085 -4.95141 -0.697777 111.429 81.6033 73.3122 -180 1.52534e-005 178.482 167.363 78.8534 -170.878 -3.40666e-006 -2.00808e-007 2.17681 -24.3346 60.2414 13.0863 8.13649 25.2327 -3.48773 -110.948 76.4557 -73.4301 4.54188e-006 -4.6773e-006 -0.467006 -4.72378 -84.6969 0.306442 -1.77578e-007 -3.04992e-006 -1.48204 15.2027 63.9046 -16.7163 -8.13649 25.2327 3.48773 
51.9188 53.0005 -5.11431 4.49818 0.841328 -6.49603 -0.0818987 -0.0230345 1.58062 -0.161289 3.95522 3.17721 -0.199807 5.59923 3.1834 -15.7958 2.06343 0.67442 9.765 11.3556 -2.75839 51.9043 -7.96271 -4.72297 128.679 48.2027 -42.0499 4.14656e-006 -1.80724e-006 -1.16788e-005 26.9088 15.8214 -0.953293 -3.02328e-006 2.07675e-006 -3 8.03013 -4.95142 0.697669 -74.6133 -6.74749 4.79071 -112.393 58.5167 19.8276 -1.02362e-006 8.41477e-006 1.00797e-006 -33.9207 5.49684 -0.0924897 3.24815e-006 -1.07351e-006 2.99997 -8.03085 -4.95141 -0.697777 111.427 81.6047 73.3179 -180 1.52534e-005 178.482 167.359 78.86 -170.875 -3.40666e-006 -2.00808e-007 2.17681 -24.3381 60.2497 13.0934 8.13649 25.2327 -3.48773 -110.933 76.4552 -73.441 4.54188e-006 -4.6773e-006 -0.467027 -4.70788 -84.6972 0.320201 -1.77578e-007 -3.04992e-006 -1.48204 15.2032 63.9053 -16.7176 -8.13649 25.2327 3.48773 
51.9201 52.9958 -5.11486 4.4932 0.843489 -6.49576 -0.0818788 -0.0238314 1.58119 -0.161204 3.95363 3.17814 -0.199721 5.59764 3.18433 -15.8053 2.06823 0.673339 9.77617 11.3546 -2.76219 51.9025 -7.96243 -4.72274 128.661 48.1653 -42.0675 4.14656e-006 -1.80724e-006 -1.16788e-005 26.9294 15.8359 -0.952545 -3.02328e-006 2.07675e-006 -3 8.03013 -4.95142 0.697669 -74.6157 -6.74813 4.7911 -112.394 58.5154 19.8304 -1.02362e-006 8.41477e-006 1.00797e-006 -33.9374 5.44706 -0.112378 3.24815e-006 -1.07351e-006 2.99997 -8.03085 -4.95141 -0.697777 111.424 81.6062 73.3238 -180 1.52534e-005 178.482 167.355 78.8665 -170.872 -3.40666e-006 -2.00808e-007 2.17681 -24.3413 60.2579 13.1004 8.13649 25.2327 -3.48773 -110.918 76.4545 -73.4523 4.54188e-006 -4.6773e-006 -0.46704 -4.69215 -84.6975 0.33385 -1.77578e-007 -3.04992e-006 -1.48204 15.2035 63.9058 -16.7188 -8.13649 25.2327 3.48773 
